<svg width="29" height="31" viewBox="0 0 29 31" fill="none" xmlns="http://www.w3.org/2000/svg">
<path d="M21.007 10.5137L2.34919 0.29145C1.81999 0.0039503 1.33279 -0.0654941 0.937988 0.0595059L16.219 15.2817L21.007 10.5109" fill="url(#paint0_linear_1023_654)"/>
<path fill-rule="evenodd" clip-rule="evenodd" d="M21.0308 20.079L27.4008 16.5901C28.6916 15.879 28.6916 14.7235 27.4008 14.0151L21.007 10.5151L16.219 15.2846L21.0308 20.079Z" fill="url(#paint1_linear_1023_654)"/>
<path d="M0.938 0.0595703C0.3682 0.23457 0 0.80957 0 1.67068L0.00560001 28.929C0.00560001 29.7846 0.3612 30.3485 0.9128 30.5373L16.219 15.2846L0.938 0.0595703Z" fill="url(#paint2_linear_1023_654)"/>
<path d="M0.912842 30.5401C1.31044 30.6735 1.80884 30.6096 2.34924 30.3151L21.028 20.079L16.219 15.2874L0.912842 30.5401Z" fill="url(#paint3_linear_1023_654)"/>
<defs>
<linearGradient id="paint0_linear_1023_654" x1="386.564" y1="-537.26" x2="1003.5" y2="1544.47" gradientUnits="userSpaceOnUse">
<stop stop-color="#19A3B4"/>
<stop offset="0.34817" stop-color="#5BC3AF"/>
<stop offset="0.92234" stop-color="#C9F7A6"/>
<stop offset="1" stop-color="#D7FEA5"/>
</linearGradient>
<linearGradient id="paint1_linear_1023_654" x1="-162.36" y1="-1082.85" x2="547.699" y2="1218.86" gradientUnits="userSpaceOnUse">
<stop stop-color="#FC227C"/>
<stop offset="1" stop-color="#FEEB7B"/>
</linearGradient>
<linearGradient id="paint2_linear_1023_654" x1="456.581" y1="-451.438" x2="1497.78" y2="2250.48" gradientUnits="userSpaceOnUse">
<stop stop-color="#0E4DA0"/>
<stop offset="1" stop-color="#6BFED4"/>
</linearGradient>
<linearGradient id="paint3_linear_1023_654" x1="2661.05" y1="267.532" x2="724.723" y2="2479.04" gradientUnits="userSpaceOnUse">
<stop stop-color="#FC472E"/>
<stop offset="0.00332" stop-color="#FC472E"/>
<stop offset="1" stop-color="#893CD8"/>
</linearGradient>
</defs>
</svg>
