<svg width="59" height="55" viewBox="0 0 59 55" fill="none" xmlns="http://www.w3.org/2000/svg">
<path d="M39.2698 25.5089C41.2213 25.6036 43.0577 26.4601 44.384 27.8946C45.7154 29.3346 46.4259 31.2407 46.3606 33.2003L46.3596 33.2178L46.3606 33.2364C46.4351 35.2017 45.729 37.1171 44.3967 38.5645C43.0694 40.0064 41.2273 40.8663 39.2698 40.961C37.3159 40.8662 35.4778 40.005 34.1565 38.5626C32.8301 37.1145 32.1322 35.1997 32.2161 33.2383L32.217 33.2178L32.2161 33.1983C32.1415 31.2426 32.8436 29.3362 34.1692 27.8956C35.4895 26.4606 37.3221 25.6037 39.2698 25.5089ZM36.7463 14.629V14.6299L36.7571 14.6358C36.9625 14.748 37.1434 14.9003 37.2883 15.084C37.4333 15.2679 37.5397 15.4793 37.6008 15.7051C37.662 15.9309 37.6762 16.1668 37.6438 16.3985C37.6114 16.6302 37.5322 16.8533 37.4114 17.0538L37.4075 17.0616L24.3196 39.7061C24.1603 39.9761 23.9334 40.2005 23.6614 40.3565C23.3894 40.5125 23.0814 40.5954 22.7678 40.5967H22.7483C22.4479 40.6095 22.1505 40.5326 21.8938 40.376L21.8801 40.3682C21.6767 40.2526 21.498 40.098 21.3547 39.9131C21.2115 39.7283 21.1063 39.5168 21.0452 39.2911C20.984 39.0652 20.9678 38.8287 20.9983 38.5967C21.0212 38.423 21.0696 38.2538 21.1418 38.0948L21.2229 37.9385L34.3127 15.2901L34.3147 15.2872C34.4304 15.0837 34.5856 14.9051 34.7708 14.7618C34.9557 14.6186 35.167 14.5133 35.3928 14.4522C35.6188 14.3911 35.855 14.3749 36.0872 14.4053C36.3194 14.4358 36.5438 14.5116 36.7463 14.629ZM39.2122 29.0557C38.2064 29.1724 37.2861 29.6784 36.6487 30.4649C36.0217 31.2387 35.7185 32.2236 35.7991 33.2149C35.7172 34.2078 36.0206 35.1948 36.6487 35.9698C37.2861 36.7563 38.2064 37.2623 39.2122 37.379L39.2698 37.3848L39.3274 37.379C40.3351 37.2625 41.2583 36.7587 41.9016 35.9747C42.5363 35.2011 42.8491 34.2138 42.7776 33.2169C42.8583 32.2181 42.5497 31.226 41.9133 30.4503C41.2671 29.6626 40.336 29.1612 39.3225 29.0547L39.2678 29.0489L39.2122 29.0557ZM19.3958 14.0372C21.3439 14.1317 23.1767 14.9897 24.4973 16.4249C25.8229 17.8655 26.525 19.7719 26.4504 21.7276L26.4495 21.7471L26.4504 21.7676C26.5343 23.7291 25.8365 25.6437 24.51 27.0919C23.1884 28.5346 21.3502 29.3958 19.3958 29.4903C17.4386 29.3952 15.5968 28.5354 14.2698 27.0938C12.9375 25.6464 12.2315 23.7309 12.3059 21.7657L12.3069 21.7471V21.7296C12.2416 19.7701 12.9512 17.8639 14.2825 16.4239C15.6085 14.9897 17.4447 14.1323 19.3958 14.0372ZM19.345 17.584C18.3315 17.6904 17.4004 18.1919 16.7542 18.9796C16.1165 19.7568 15.8066 20.7512 15.8889 21.752C15.8191 22.7469 16.1315 23.7319 16.7649 24.504C17.4082 25.288 18.3315 25.7907 19.3391 25.9073L19.3967 25.9141L19.4543 25.9073C20.4601 25.7907 21.3804 25.2855 22.0178 24.4991C22.6455 23.7246 22.9487 22.7384 22.8674 21.7462C22.9581 20.752 22.659 19.7611 22.0295 18.9844C21.3891 18.1941 20.4604 17.6902 19.4485 17.584L19.3967 17.5792L19.345 17.584Z" fill="#0066FF" stroke="#0066FF"/>
<path d="M29.3486 0.513672C36.7513 0.280694 43.9445 2.99382 49.3477 8.05664C54.7466 13.1157 57.9174 20.108 58.166 27.5C57.9174 34.892 54.7466 41.8843 49.3477 46.9434C43.9445 52.0062 36.7513 54.7193 29.3486 54.4863L29.333 54.4854L29.3174 54.4863C21.9148 54.7192 14.7224 52.0061 9.31934 46.9434C3.92028 41.8843 0.748641 34.8921 0.5 27.5C0.748641 20.1079 3.92028 13.1157 9.31934 8.05664C14.7224 2.99387 21.9148 0.280757 29.3174 0.513672L29.333 0.514648L29.3486 0.513672ZM29.333 4.09473C22.8904 3.86692 16.6184 6.19615 11.8877 10.5742C7.15264 14.9564 4.34705 21.0348 4.08398 27.4795L4.08301 27.5L4.08398 27.5205C4.34705 33.9652 7.15264 40.0436 11.8877 44.4258C16.6184 48.8039 22.8904 51.1321 29.333 50.9043C35.7758 51.1323 42.0474 48.804 46.7783 44.4258C51.5135 40.0436 54.3199 33.9653 54.583 27.5205L54.584 27.5L54.583 27.4795C54.3199 21.0347 51.5135 14.9564 46.7783 10.5742C42.0474 6.19605 35.7758 3.86674 29.333 4.09473Z" fill="#0066FF" stroke="#0066FF"/>
</svg>
