<svg width="39" height="52" viewBox="0 0 39 52" fill="none" xmlns="http://www.w3.org/2000/svg">
<path d="M12.1875 47.625H26.8125C27.3264 47.625 27.8193 47.829 28.1826 48.1924C28.546 48.5557 28.75 49.0486 28.75 49.5625C28.75 50.0764 28.546 50.5693 28.1826 50.9326C27.8193 51.296 27.3264 51.5 26.8125 51.5H12.1875C11.6736 51.5 11.1807 51.296 10.8174 50.9326C10.454 50.5693 10.25 50.0764 10.25 49.5625C10.25 49.0486 10.454 48.5557 10.8174 48.1924C11.1807 47.829 11.6736 47.625 12.1875 47.625ZM37.793 19H28.75V41.75H10.25V19H1.20703L19.5 0.707031L37.793 19ZM10.5615 15.125H14.125V37.875H24.875V15.125H28.4385L19.5 6.18652L10.5615 15.125Z" fill="#0066FF" stroke="white"/>
</svg>
