<svg width="59" height="55" viewBox="0 0 59 55" fill="none" xmlns="http://www.w3.org/2000/svg">
<path d="M29.3486 0.513672C36.7513 0.280694 43.9445 2.99382 49.3477 8.05664C54.7466 13.1157 57.9174 20.108 58.166 27.5C57.9174 34.892 54.7466 41.8843 49.3477 46.9434C43.9445 52.0062 36.7513 54.7193 29.3486 54.4863L29.333 54.4854L29.3174 54.4863C21.9148 54.7192 14.7224 52.0061 9.31934 46.9434C3.92028 41.8843 0.748641 34.8921 0.5 27.5C0.748641 20.1079 3.92028 13.1157 9.31934 8.05664C14.7224 2.99387 21.9148 0.280757 29.3174 0.513672L29.333 0.514648L29.3486 0.513672ZM29.333 4.09473C22.8904 3.86692 16.6184 6.19615 11.8877 10.5742C7.15264 14.9564 4.34705 21.0348 4.08398 27.4795L4.08301 27.5L4.08398 27.5205C4.34705 33.9652 7.15264 40.0436 11.8877 44.4258C16.6184 48.8039 22.8904 51.1321 29.333 50.9043C35.7758 51.1323 42.0474 48.804 46.7783 44.4258C51.5135 40.0436 54.3199 33.9653 54.583 27.5205L54.584 27.5L54.583 27.4795C54.3199 21.0347 51.5135 14.9564 46.7783 10.5742C42.0474 6.19605 35.7758 3.86674 29.333 4.09473Z" fill="#0066FF" stroke="#0066FF"/>
</svg>
