<svg width="60" height="39" viewBox="0 0 60 39" fill="none" xmlns="http://www.w3.org/2000/svg">
<path d="M30.0205 24.8496C27.132 24.8496 25.8083 25.0525 22.7549 25.4385C21.2079 25.634 19.839 25.9076 18.7236 26.2539C17.6208 26.5964 16.7143 27.0258 16.1396 27.5625L16.1387 27.5645C15.6861 27.9915 15.4604 28.4878 15.4932 29.0127C15.5249 29.5176 15.79 29.956 16.123 30.3008C16.7827 30.9835 17.8614 31.4644 18.8115 31.5674C20.4938 31.7541 23.8339 31.6865 30.0332 31.6865C35.6141 31.6865 38.8789 31.7405 40.7021 31.6152V31.6406L41.2617 31.5742C42.2032 31.4625 43.2451 31.0067 43.8857 30.3311C44.2106 29.9884 44.4618 29.5573 44.498 29.0586C44.5305 28.6111 44.3859 28.1717 44.0752 27.7656L43.9316 27.5938C43.6868 27.3192 43.3351 27.0868 42.9307 26.8848C42.5188 26.6791 42.021 26.4895 41.458 26.3164C40.3318 25.9702 38.9051 25.6757 37.2969 25.4414C34.0937 24.9749 32.905 24.8496 30.0205 24.8496ZM10.2002 17.8955C7.56904 17.1398 6.54699 16.7926 4.79297 17.0557H4.79199C4.41977 17.1123 4.10945 17.2343 3.88477 17.4717C3.66551 17.7035 3.59177 17.9809 3.54883 18.1836C3.43801 18.7013 3.42437 19.2101 3.61133 20.043C3.78308 20.8193 4.33422 21.3043 4.9707 21.582C5.59651 21.8551 6.34531 21.9491 7.04395 21.9492L7.04492 21.9502V21.9492C9.23043 21.9532 11.4141 21.8278 13.584 21.5732L13.583 21.5723C14.069 21.5257 14.3648 21.1533 14.4658 20.8096C14.5667 20.4658 14.5211 19.9776 14.1162 19.6846C13.3354 19.1106 12.0079 18.4141 10.1992 17.8955H10.2002ZM55.2617 17.0234C53.8737 16.833 52.2705 17.1826 49.792 17.8945C47.9896 18.412 46.6414 19.0958 45.8643 19.6914V19.6924C45.4846 19.9837 45.402 20.4355 45.4766 20.7852C45.5457 21.1086 45.8001 21.5209 46.2842 21.5713V21.5723C48.4955 21.8233 50.7201 21.9487 52.9463 21.9482C53.6421 21.9482 54.3924 21.8553 55.0195 21.583C55.6575 21.3059 56.2117 20.8196 56.3809 20.0381L56.3799 20.0371C56.5209 19.3988 56.5453 18.741 56.4482 18.0947H56.4463C56.4229 17.9042 56.3452 17.6949 56.2168 17.5166C56.0785 17.3247 55.8546 17.1308 55.5371 17.0693V17.0684L55.2617 17.0234ZM29.9961 3.39551C27.6068 3.39551 24.8741 3.55759 22.3643 3.90039C19.8677 4.24141 17.5424 4.76755 15.9971 5.51758C14.8715 6.06385 14.0163 6.97309 13.3242 7.98047C12.6337 8.98562 12.0814 10.1239 11.584 11.1543L11.5791 11.166C11.5416 11.249 11.5019 11.3263 11.4531 11.4268C11.3421 11.6555 11.2929 11.9093 11.3105 12.1631C11.3282 12.4168 11.4125 12.6607 11.5537 12.8721C11.6949 13.0833 11.8882 13.2543 12.1143 13.3701C12.3402 13.4858 12.592 13.5435 12.8457 13.5371H12.8467C17.0244 13.427 25.7535 13.0674 29.9961 13.0674C34.2385 13.0674 42.9683 13.4182 47.1387 13.5283H47.1396C47.3933 13.5347 47.6452 13.4779 47.8711 13.3623C48.0971 13.2466 48.2904 13.0754 48.4316 12.8643C48.5729 12.6528 48.6572 12.4081 48.6748 12.1543C48.688 11.9638 48.6635 11.7736 48.6035 11.5938L48.5322 11.418L48.4092 11.1582L48.4072 11.1543L48.0215 10.3652C47.6232 9.56366 47.1834 8.73433 46.666 7.98047C46.018 7.03622 45.2269 6.17785 44.2031 5.62402L43.9951 5.51758C42.4493 4.76483 40.1236 4.23882 37.627 3.89844C35.1172 3.55625 32.3851 3.39552 29.9961 3.39551ZM3.49023 36.583L3.05176 36.5293C2.76774 36.4945 2.50103 36.3816 2.28223 36.2061C2.06359 36.0305 1.90189 35.7997 1.81445 35.541C1.79104 35.4717 1.02872 33.1871 0.62207 29.3916C0.430628 27.5888 0.466495 24.7562 0.714844 22.0029C1.16281 17.1145 1.88852 16.2708 2.08398 16.0156C2.64241 15.2907 3.5651 14.7947 4.68066 14.2061L4.68164 14.207C4.81103 14.1403 4.92392 14.0439 5.01074 13.9258C5.09758 13.8076 5.15577 13.6699 5.17969 13.5244C5.19758 13.4153 5.19587 13.3042 5.1748 13.1963L5.14746 13.0898L5.10742 12.9873C5.0618 12.8876 4.99891 12.7968 4.92188 12.7188L4.91602 12.7129L4.80957 12.5967C4.71 12.4755 4.63101 12.3396 4.57617 12.1943C4.50408 12.0033 4.47526 11.8 4.49023 11.5977C4.52504 11.231 4.69974 10.8874 4.98438 10.6367C5.23376 10.4171 5.55099 10.2826 5.88672 10.2549L6.03125 10.25H7.9873L8.17969 10.2617L8.29785 10.2764L8.40918 10.2363C8.43076 10.2286 8.45355 10.2229 8.47656 10.2197L8.73535 10.1846L8.85352 9.95215L8.86426 9.93359L8.86914 9.92285C10.0351 7.52046 11.552 4.42873 14.6514 2.9248C16.9965 1.78819 20.3762 1.17621 23.4316 0.852539C26.4723 0.530457 29.1302 0.5 29.9961 0.5C30.8622 0.500006 33.5194 0.530036 36.5605 0.852539C39.6166 1.17663 42.9973 1.79038 45.3457 2.92871C48.4453 4.43264 49.9629 7.52427 51.1289 9.92676L51.2334 10.1416L51.4658 10.1953C51.4984 10.2029 51.53 10.2137 51.5605 10.2266L51.6836 10.2783L51.8154 10.2617L52.0078 10.25H53.96C54.3485 10.2465 54.7228 10.3857 55.0078 10.6367C55.2567 10.856 55.4217 11.1463 55.4824 11.4609L55.502 11.5977C55.5191 11.8017 55.4906 12.0071 55.4189 12.2002C55.3468 12.3947 55.2325 12.5729 55.082 12.7217L55.0781 12.7256C55.001 12.8036 54.9373 12.8945 54.8916 12.9941L54.8525 13.0967C54.8074 13.237 54.7954 13.3866 54.8193 13.5322C54.8433 13.6778 54.9014 13.8153 54.9883 13.9336C55.0742 14.0505 55.1867 14.1443 55.3145 14.2109V14.2119C56.4298 14.7967 57.3517 15.2947 57.916 16.0254V16.0264C58.0969 16.2594 58.7493 17.0163 59.1982 21.1396L59.2852 22.0098C59.5046 24.4229 59.5571 26.8899 59.4385 28.6777L59.377 29.4004C58.9715 33.1843 58.2133 35.4663 58.1855 35.5488C58.0979 35.8081 57.9353 36.0402 57.7158 36.2158C57.4964 36.3914 57.2289 36.5039 56.9443 36.5381L56.5039 36.5908V37.0488C56.5039 37.4292 56.3484 37.7964 56.0684 38.0693C55.7879 38.3427 55.4049 38.499 55.0029 38.499H48.002C47.6001 38.4989 47.2169 38.3427 46.9365 38.0693C46.6567 37.7964 46.502 37.4291 46.502 37.0488V36.5576L46.0107 36.5488C45.0725 36.5316 44.3976 36.3685 43.6426 36.1797H43.6416C42.4649 35.8708 41.262 35.6649 40.0479 35.5654H40.0469C36.2109 35.2096 32.2382 35.0879 29.9961 35.0879C27.9921 35.0879 24.8252 35.1812 21.498 35.4434L20.0713 35.5654C19.0108 35.6525 17.9589 35.821 16.9258 36.0684L16.4844 36.1787C15.6971 36.3769 15.0003 36.5498 13.9922 36.5498H13.4922V37.0498C13.4922 37.4302 13.3376 37.7983 13.0576 38.0713C12.7772 38.3446 12.394 38.4999 11.9922 38.5H4.99121C4.58943 38.5 4.20619 38.3445 3.92578 38.0713C3.64578 37.7983 3.49023 37.4302 3.49023 37.0498V36.583Z" fill="#0066FF" stroke="#0066FF"/>
</svg>
