<svg width="60" height="42" viewBox="0 0 60 42" fill="none" xmlns="http://www.w3.org/2000/svg">
<path d="M59.5 18.5V32.25C59.5 33.4647 59.2608 34.6678 58.7959 35.79C58.331 36.9122 57.6499 37.9321 56.791 38.791C55.9321 39.6499 54.9122 40.331 53.79 40.7959C52.6678 41.2608 51.4647 41.5 50.25 41.5H9.75C7.29675 41.5 4.9437 40.5257 3.20898 38.791C1.47427 37.0563 0.5 34.7033 0.5 32.25V18.5H59.5ZM41.25 28C40.5207 28 39.8214 28.2899 39.3057 28.8057C38.7899 29.3214 38.5 30.0207 38.5 30.75C38.5 31.4793 38.7899 32.1786 39.3057 32.6943C39.8214 33.2101 40.5207 33.5 41.25 33.5H48.75C49.4793 33.5 50.1786 33.2101 50.6943 32.6943C51.2101 32.1786 51.5 31.4793 51.5 30.75C51.5 30.0207 51.2101 29.3214 50.6943 28.8057C50.1786 28.2899 49.4793 28 48.75 28H41.25ZM9.75 0.5H50.25C51.4647 0.5 52.6678 0.739245 53.79 1.2041C54.9122 1.66896 55.9321 2.35009 56.791 3.20898C57.6499 4.06788 58.331 5.08777 58.7959 6.20996C59.2608 7.33222 59.5 8.53527 59.5 9.75V13H0.5V9.75C0.5 7.29675 1.47427 4.9437 3.20898 3.20898C4.9437 1.47427 7.29675 0.5 9.75 0.5Z" fill="#0066FF" stroke="#0066FF"/>
</svg>
